<svg width="286" height="121" viewBox="0 0 286 121" fill="none" xmlns="http://www.w3.org/2000/svg">
<path d="M48.3285 18.9523L81.3165 37.9979V76.0891L48.3285 95.1347L15.3406 76.0891V37.9979L48.3285 18.9523Z" fill="#F49B33"/>
<g clip-path="url(#clip0_48_793)">
<path fill-rule="evenodd" clip-rule="evenodd" d="M54.3646 69.3401C54.2288 69.5496 54.0531 69.7303 53.8474 69.8719C53.6418 70.0135 53.4102 70.1131 53.166 70.1651C52.9218 70.2171 52.6698 70.2205 52.4243 70.175C52.1788 70.1295 51.9446 70.0361 51.7353 69.9001L45.2595 65.7026C44.413 65.1529 43.4148 64.8836 42.4067 64.933C41.3985 64.9823 40.4314 65.3478 39.6426 65.9776L40.9511 66.8081L51.1133 71.7275C51.5579 71.9523 51.8964 72.3427 52.0558 72.8147C52.2153 73.2867 52.1831 73.8024 51.966 74.2508C51.7489 74.6992 51.3644 75.0444 50.8953 75.212C50.4262 75.3797 49.91 75.3564 49.4579 75.1471L39.2957 70.2277L37.8309 69.7171C37.8264 70.7266 38.1399 71.7119 38.7269 72.5332C39.3139 73.3545 40.1445 73.9701 41.1011 74.2928L48.4122 76.7678C48.8789 76.9375 49.2607 77.2833 49.4757 77.731C49.6906 78.1787 49.7218 78.6928 49.5624 79.1632C49.4029 79.6336 49.0657 80.0228 48.6228 80.2476C48.1799 80.4724 47.6666 80.5148 47.1928 80.3658L39.8817 77.8907C37.9632 77.2408 36.3351 75.9356 35.2833 74.2044C34.2316 72.4732 33.8237 70.4268 34.1311 68.4246L12.6805 60.6627C12.0891 60.4566 11.548 60.1277 11.0928 59.6977C10.6375 59.2676 10.2784 58.7461 10.0389 58.1674C9.79951 57.5888 9.6852 56.966 9.70353 56.34C9.72186 55.714 9.8724 55.0989 10.1453 54.5352C10.4182 53.9716 10.8072 53.472 11.2868 53.0693C11.7665 52.6666 12.3259 52.37 12.9283 52.1988C13.5307 52.0277 14.1625 51.9859 14.7822 52.0762C15.402 52.1666 15.9956 52.387 16.524 52.723L36.3332 63.8755C37.713 62.3925 39.5712 61.4431 41.5815 61.1942C43.5918 60.9452 45.6255 61.4127 47.3253 62.5144L53.8034 66.7131C54.226 66.9874 54.5223 67.4184 54.6272 67.9111C54.7321 68.4038 54.6388 68.9175 54.3646 69.3401Z" fill="#1E1E1E"/>
</g>
<g clip-path="url(#clip1_48_793)">
<path fill-rule="evenodd" clip-rule="evenodd" d="M63.3005 47.744L86.351 56.8669C87.0548 57.1135 87.6984 57.5062 88.2396 58.0192C88.7808 58.5322 89.2074 59.1539 89.4913 59.8435C89.7752 60.533 89.91 61.2748 89.8869 62.0202C89.8638 62.7655 89.6833 63.4976 89.3572 64.1682C89.0311 64.8388 88.5668 65.4329 87.9949 65.9114C87.4229 66.3899 86.7562 66.742 86.0386 66.9445C85.3209 67.1471 84.5685 67.1955 83.8308 67.0867C83.093 66.9778 82.3867 66.7142 81.7581 66.313L60.9096 52.6613C58.5371 54.8482 54.3327 56.4859 49.5025 54.1391C46.5813 52.717 44.312 50.5286 42.9765 48.1609C41.6775 45.8573 41.0786 43.01 42.2706 40.5586C43.4604 38.1079 46.0718 36.8198 48.6838 36.4195C51.3707 36.0077 54.4955 36.4403 57.4167 37.8624C62.2498 40.2106 63.5553 44.5274 63.3005 47.744Z" fill="#1E1E1E"/>
</g>
<path d="M114.021 78.5901C110.91 78.5901 108.227 78.0894 105.974 77.088C103.757 76.0508 101.718 74.495 99.8584 72.4206L105.33 67.0022C106.546 68.3971 107.888 69.4879 109.354 70.2747C110.856 71.0258 112.591 71.4013 114.558 71.4013C116.346 71.4013 117.723 71.0795 118.689 70.4357C119.69 69.7919 120.191 68.8978 120.191 67.7533C120.191 66.7161 119.869 65.8756 119.225 65.2319C118.581 64.5881 117.723 64.0337 116.65 63.5688C115.613 63.1038 114.451 62.6568 113.163 62.2276C111.911 61.7984 110.659 61.3156 109.408 60.7791C108.156 60.2069 106.993 59.5095 105.921 58.6869C104.883 57.8285 104.043 56.7734 103.399 55.5216C102.755 54.2341 102.433 52.6247 102.433 50.6934C102.433 48.3686 102.988 46.3658 104.097 44.6848C105.241 43.0039 106.815 41.7342 108.818 40.8758C110.82 39.9817 113.127 39.5347 115.738 39.5347C118.385 39.5347 120.799 39.9996 122.98 40.9295C125.198 41.8594 127.022 43.129 128.453 44.7385L122.98 50.1569C121.836 48.9766 120.674 48.1004 119.493 47.5282C118.349 46.9559 117.043 46.6698 115.577 46.6698C114.111 46.6698 112.948 46.9559 112.09 47.5282C111.232 48.0646 110.802 48.8515 110.802 49.8886C110.802 50.8543 111.124 51.6411 111.768 52.2491C112.412 52.8214 113.252 53.3221 114.29 53.7513C115.363 54.1805 116.525 54.6096 117.777 55.0388C119.064 55.468 120.334 55.9687 121.586 56.541C122.837 57.1132 123.982 57.8464 125.019 58.7405C126.092 59.5989 126.95 60.7076 127.594 62.0667C128.238 63.39 128.56 65.0352 128.56 67.0022C128.56 70.6145 127.272 73.4578 124.697 75.5322C122.122 77.5708 118.563 78.5901 114.021 78.5901ZM134.223 78V40.1248H142.646V78H134.223ZM140.661 78V70.7039H161.422V78H140.661ZM140.661 62.174V55.1461H159.545V62.174H140.661ZM140.661 47.3672V40.1248H161.154V47.3672H140.661ZM164.684 78L179.705 40.1248H187.323L202.183 78H193.278L181.905 46.5625H184.962L173.428 78H164.684ZM173.214 71.1331V64.2662H193.868V71.1331H173.214ZM211.526 78V40.6613H219.949V78H211.526ZM199.67 47.4745V40.1248H231.805V47.4745H199.67ZM243.244 62.3885V56.1654H251.238C252.919 56.1654 254.206 55.7362 255.101 54.8779C256.03 54.0195 256.495 52.8571 256.495 51.3908C256.495 50.0317 256.048 48.9051 255.154 48.011C254.26 47.1169 252.972 46.6698 251.292 46.6698H243.244V40.1248H252.257C254.761 40.1248 256.96 40.6076 258.856 41.5733C260.751 42.5032 262.236 43.8086 263.309 45.4895C264.382 47.1705 264.918 49.1018 264.918 51.2835C264.918 53.5009 264.382 55.4501 263.309 57.1311C262.236 58.7763 260.734 60.0638 258.802 60.9937C256.871 61.9236 254.6 62.3885 251.989 62.3885H243.244ZM236.807 78V40.1248H245.229V78H236.807ZM257.407 78L245.605 61.6911L253.33 59.5989L267.386 78H257.407Z" fill="#F49B33"/>
<defs>
<clipPath id="clip0_48_793">
<rect width="42.6902" height="42.6902" fill="white" transform="translate(5 50.4785) rotate(-19.1688)"/>
</clipPath>
<clipPath id="clip1_48_793">
<rect width="53.0706" height="53.0706" fill="white" transform="translate(99 68.1582) rotate(160.93)"/>
</clipPath>
</defs>
</svg>
